<svg width="512" height="512" viewBox="0 0 24 24" xmlns="http://www.w3.org/2000/svg">
  <circle cx="12" cy="12" r="11" fill="#3498db" />

  <text x="12" y="5.5" font-family="monospace" font-weight="bold" font-size="2.5" 
        text-anchor="middle" fill="white" stroke="black" stroke-width="0.1">ТЕТРИС</text>

  <g transform="translate(0, 1)">
    <rect x="9" y="7" width="2" height="2" fill="white" stroke="#222" stroke-width="0.1"/>
    <rect x="13" y="7" width="2" height="2" fill="white" stroke="#222" stroke-width="0.1"/>
    <rect x="8" y="7" width="1" height="1" fill="#f1c40f" stroke="#222" stroke-width="0.1"/>
    <rect x="15" y="7" width="1" height="1" fill="#f1c40f" stroke="#222" stroke-width="0.1"/>
    <rect x="5" y="8" width="2" height="1" fill="white" stroke="#222" stroke-width="0.1"/>
    <rect x="17" y="8" width="2" height="1" fill="white" stroke="#222" stroke-width="0.1"/>
    <rect x="11" y="7" width="2" height="2" fill="white" stroke="#222" stroke-width="0.1"/> <rect x="9" y="9" width="6" height="3" fill="#0039a6" stroke="#222" stroke-width="0.1"/>
    <rect x="6" y="9" width="3" height="2" fill="#0039a6" stroke="#222" stroke-width="0.1"/>
    <rect x="15" y="9" width="3" height="2" fill="#0039a6" stroke="#222" stroke-width="0.1"/>

    <rect x="10" y="12" width="4" height="3" fill="#d52b1e" stroke="#222" stroke-width="0.1"/>
    <rect x="8" y="13" width="2" height="2" fill="#d52b1e" stroke="#222" stroke-width="0.1"/>
    <rect x="14" y="13" width="2" height="2" fill="#d52b1e" stroke="#222" stroke-width="0.1"/>
    <rect x="11" y="15" width="2" height="1" fill="#d52b1e" stroke="#222" stroke-width="0.1"/>
  </g>

  <text x="12" y="19.5" font-family="monospace" font-weight="bold" font-size="2.5" 
        text-anchor="middle" fill="white" stroke="black" stroke-width="0.1">ПАТРИОТ</text>
</svg>